<svg width="480" height="480" viewBox="0 0 480 480" fill="none" xmlns="http://www.w3.org/2000/svg">
<circle cx="240" cy="240" r="115" stroke="white" stroke-width="10"/>
<path fill-rule="evenodd" clip-rule="evenodd" d="M122 242.969C70.947 269.54 39.9307 294.709 45.0041 308.649C52.9626 330.514 146.712 316.466 254.4 277.271C362.088 238.075 442.935 188.576 434.977 166.71C429.91 152.79 390.071 153.425 334 165.839V173.275C346.022 170.598 357.252 168.479 367.498 166.943C385.955 164.178 400.648 163.394 410.882 164.405C421.532 165.457 424.856 168.141 425.58 170.13C426.304 172.12 425.483 176.312 418.001 183.964C410.811 191.317 399.052 200.161 383.135 209.906C351.422 229.323 305.172 251.127 251.937 270.503C198.703 289.879 149.257 302.905 112.483 308.416C94.0259 311.181 79.3329 311.965 69.0983 310.954C58.4488 309.901 55.1251 307.218 54.401 305.228C53.677 303.239 54.498 299.047 61.9796 291.395C69.1696 284.042 80.929 275.198 96.8455 265.453C104.433 260.807 112.852 256.025 122 251.173V242.969Z" fill="white"/>
</svg>
