<svg width="1440" height="1024" viewBox="0 0 1440 1024" fill="none" xmlns="http://www.w3.org/2000/svg">
<rect width="1440" height="1024" fill="#040404"/>
<path d="M158.655 92L160.784 106.526L168.31 104.62L162.914 110.253L168.31 115.886L160.784 113.98L158.655 132L156.526 113.98L149 115.886L154.397 110.253L149 104.62L156.526 106.526L158.655 92Z" fill="white"/>
<path d="M371.655 215L373.784 229.526L381.31 227.62L375.914 233.253L381.31 238.886L373.784 236.98L371.655 255L369.526 236.98L362 238.886L367.397 233.253L362 227.62L369.526 229.526L371.655 215Z" fill="white"/>
<path d="M210.483 379L213.677 400.79L224.966 397.93L216.87 406.38L224.966 414.83L213.677 411.97L210.483 439L207.289 411.97L196 414.83L204.095 406.38L196 397.93L207.289 400.79L210.483 379Z" fill="white"/>
<circle cx="87" cy="267" r="2" fill="white"/>
<circle cx="267" cy="157" r="2" fill="white"/>
<circle cx="407" cy="427" r="2" fill="white"/>
<circle cx="287" cy="547" r="2" fill="white"/>
<path d="M1070.66 459L1072.78 473.526L1080.31 471.62L1074.91 477.253L1080.31 482.886L1072.78 480.98L1070.66 499L1068.53 480.98L1061 482.886L1066.4 477.253L1061 471.62L1068.53 473.526L1070.66 459Z" fill="white"/>
<path d="M1283.66 582L1285.78 596.526L1293.31 594.62L1287.91 600.253L1293.31 605.886L1285.78 603.98L1283.66 622L1281.53 603.98L1274 605.886L1279.4 600.253L1274 594.62L1281.53 596.526L1283.66 582Z" fill="white"/>
<path d="M1122.48 746L1125.68 767.79L1136.97 764.93L1128.87 773.38L1136.97 781.83L1125.68 778.97L1122.48 806L1119.29 778.97L1108 781.83L1116.1 773.38L1108 764.93L1119.29 767.79L1122.48 746Z" fill="white"/>
<circle cx="999" cy="634" r="2" fill="white"/>
<circle cx="1179" cy="524" r="2" fill="white"/>
<circle cx="1319" cy="794" r="2" fill="white"/>
<circle cx="1199" cy="914" r="2" fill="white"/>
<path d="M631.345 439L629.216 453.526L621.69 451.62L627.086 457.253L621.69 462.886L629.216 460.98L631.345 479L633.474 460.98L641 462.886L635.603 457.253L641 451.62L633.474 453.526L631.345 439Z" fill="white"/>
<path d="M418.345 562L416.216 576.526L408.69 574.62L414.086 580.253L408.69 585.886L416.216 583.98L418.345 602L420.474 583.98L428 585.886L422.603 580.253L428 574.62L420.474 576.526L418.345 562Z" fill="white"/>
<path d="M579.517 726L576.323 747.79L565.034 744.93L573.13 753.38L565.034 761.83L576.323 758.97L579.517 786L582.711 758.97L594 761.83L585.905 753.38L594 744.93L582.711 747.79L579.517 726Z" fill="white"/>
<circle r="2" transform="matrix(-1 0 0 1 703 614)" fill="white"/>
<circle r="2" transform="matrix(-1 0 0 1 523 504)" fill="white"/>
<circle r="2" transform="matrix(-1 0 0 1 383 774)" fill="white"/>
<circle r="2" transform="matrix(-1 0 0 1 503 894)" fill="white"/>
<path d="M923.345 55L921.216 69.5264L913.69 67.6201L919.086 73.2533L913.69 78.8865L921.216 76.9801L923.345 95L925.474 76.9801L933 78.8865L927.603 73.2533L933 67.6201L925.474 69.5264L923.345 55Z" fill="white"/>
<path d="M710.345 178L708.216 192.526L700.69 190.62L706.086 196.253L700.69 201.886L708.216 199.98L710.345 218L712.474 199.98L720 201.886L714.603 196.253L720 190.62L712.474 192.526L710.345 178Z" fill="white"/>
<path d="M871.517 342L868.323 363.79L857.034 360.93L865.13 369.38L857.034 377.83L868.323 374.97L871.517 402L874.711 374.97L886 377.83L877.905 369.38L886 360.93L874.711 363.79L871.517 342Z" fill="white"/>
<circle r="2" transform="matrix(-1 0 0 1 995 230)" fill="white"/>
<circle r="2" transform="matrix(-1 0 0 1 815 120)" fill="white"/>
<circle r="2" transform="matrix(-1 0 0 1 675 390)" fill="white"/>
<circle r="2" transform="matrix(-1 0 0 1 795 510)" fill="white"/>
<path d="M520.655 27L522.784 41.5264L530.31 39.6201L524.914 45.2533L530.31 50.8865L522.784 48.9801L520.655 67L518.526 48.9801L511 50.8865L516.397 45.2533L511 39.6201L518.526 41.5264L520.655 27Z" fill="white"/>
<path d="M494.655 322L496.784 336.526L504.31 334.62L498.914 340.253L504.31 345.886L496.784 343.98L494.655 362L492.526 343.98L485 345.886L490.397 340.253L485 334.62L492.526 336.526L494.655 322Z" fill="white"/>
<path d="M103.483 832L106.677 853.79L117.966 850.93L109.87 859.38L117.966 867.83L106.677 864.97L103.483 892L100.289 864.97L89 867.83L97.095 859.38L89 850.93L100.289 853.79L103.483 832Z" fill="white"/>
<circle cx="137" cy="587" r="2" fill="white"/>
<circle cx="557" cy="157" r="2" fill="white"/>
<circle cx="247" cy="727" r="2" fill="white"/>
<circle cx="287" cy="927" r="2" fill="white"/>
<path d="M1140.66 137L1142.78 151.526L1150.31 149.62L1144.91 155.253L1150.31 160.886L1142.78 158.98L1140.66 177L1138.53 158.98L1131 160.886L1136.4 155.253L1131 149.62L1138.53 151.526L1140.66 137Z" fill="white"/>
<path d="M1364.66 352L1366.78 366.526L1374.31 364.62L1368.91 370.253L1374.31 375.886L1366.78 373.98L1364.66 392L1362.53 373.98L1355 375.886L1360.4 370.253L1355 364.62L1362.53 366.526L1364.66 352Z" fill="white"/>
<path d="M1204.66 272L1206.78 286.526L1214.31 284.62L1208.91 290.253L1214.31 295.886L1206.78 293.98L1204.66 312L1202.53 293.98L1195 295.886L1200.4 290.253L1195 284.62L1202.53 286.526L1204.66 272Z" fill="white"/>
<path d="M884.655 932L886.784 946.526L894.31 944.62L888.914 950.253L894.31 955.886L886.784 953.98L884.655 972L882.526 953.98L875 955.886L880.397 950.253L875 944.62L882.526 946.526L884.655 932Z" fill="white"/>
<path d="M833.483 662L836.677 683.79L847.966 680.93L839.87 689.38L847.966 697.83L836.677 694.97L833.483 722L830.289 694.97L819 697.83L827.095 689.38L819 680.93L830.289 683.79L833.483 662Z" fill="white"/>
<circle cx="867" cy="587" r="2" fill="white"/>
<circle cx="1287" cy="47" r="2" fill="white"/>
<circle cx="977" cy="727" r="2" fill="white"/>
<circle cx="1017" cy="927" r="2" fill="white"/>
</svg>
